<svg width="1600" height="1200" viewBox="0 0 1600 1200" fill="none" xmlns="http://www.w3.org/2000/svg">
  <defs>
    <linearGradient id="bg" x1="120" y1="80" x2="1480" y2="1120" gradientUnits="userSpaceOnUse">
      <stop stop-color="#63D6CB" stop-opacity="0.3"/>
      <stop offset="0.48" stop-color="#0E2233"/>
      <stop offset="1" stop-color="#FF9C52" stop-opacity="0.28"/>
    </linearGradient>
    <linearGradient id="panel" x1="250" y1="180" x2="1260" y2="980" gradientUnits="userSpaceOnUse">
      <stop stop-color="rgba(255,255,255,0.18)"/>
      <stop offset="1" stop-color="rgba(255,255,255,0.06)"/>
    </linearGradient>
  </defs>
  <rect width="1600" height="1200" fill="#07131D"/>
  <rect width="1600" height="1200" fill="url(#bg)"/>
  <circle cx="1340" cy="230" r="168" fill="#63D6CB" fill-opacity="0.14"/>
  <circle cx="250" cy="990" r="210" fill="#FF9C52" fill-opacity="0.12"/>
  <rect x="96" y="94" width="1408" height="1012" rx="48" fill="rgba(5,16,25,0.48)" stroke="rgba(255,255,255,0.12)"/>
  <text x="150" y="172" fill="#8FF2E0" font-family="Aptos, Segoe UI, sans-serif" font-size="24" letter-spacing="4">PLACEHOLDER VISUAL</text>
  <text x="150" y="258" fill="#EEF6F6" font-family="Bahnschrift, Aptos, sans-serif" font-size="68" font-weight="700">Engineering Lab</text>
  <text x="150" y="318" fill="#ABC0CB" font-family="Aptos, Segoe UI, sans-serif" font-size="28">Build notes, releases, architecture, and prototypes</text>
  <rect x="150" y="390" width="760" height="360" rx="40" fill="rgba(255,255,255,0.05)" stroke="rgba(255,255,255,0.08)"/>
  <rect x="962" y="390" width="488" height="150" rx="34" fill="rgba(255,255,255,0.05)" stroke="rgba(255,255,255,0.08)"/>
  <rect x="962" y="572" width="488" height="178" rx="34" fill="rgba(255,255,255,0.05)" stroke="rgba(255,255,255,0.08)"/>
  <rect x="150" y="798" width="410" height="210" rx="34" fill="rgba(255,255,255,0.05)" stroke="rgba(255,255,255,0.08)"/>
  <rect x="592" y="798" width="420" height="210" rx="34" fill="rgba(255,255,255,0.05)" stroke="rgba(255,255,255,0.08)"/>
  <rect x="1044" y="798" width="406" height="210" rx="34" fill="rgba(255,255,255,0.05)" stroke="rgba(255,255,255,0.08)"/>
  <path d="M210 650C288 560 334 596 394 544C454 492 506 448 570 508C634 568 710 620 850 486" stroke="#63D6CB" stroke-width="14" stroke-linecap="round"/>
  <path d="M1016 482H1386" stroke="#EEF6F6" stroke-opacity="0.18" stroke-width="18" stroke-linecap="round"/>
  <path d="M1016 630H1386" stroke="#EEF6F6" stroke-opacity="0.18" stroke-width="18" stroke-linecap="round"/>
  <path d="M1016 688H1270" stroke="#EEF6F6" stroke-opacity="0.12" stroke-width="18" stroke-linecap="round"/>
  <rect x="190" y="830" width="144" height="144" rx="28" fill="#63D6CB" fill-opacity="0.18"/>
  <rect x="632" y="830" width="144" height="144" rx="28" fill="#FF9C52" fill-opacity="0.18"/>
  <rect x="1084" y="830" width="144" height="144" rx="28" fill="#8FF2E0" fill-opacity="0.18"/>
  <text x="372" y="892" fill="#EEF6F6" font-family="Bahnschrift, Aptos, sans-serif" font-size="34" font-weight="700">Ship</text>
  <text x="372" y="936" fill="#ABC0CB" font-family="Aptos, Segoe UI, sans-serif" font-size="24">fast, clean, credible</text>
  <text x="814" y="892" fill="#EEF6F6" font-family="Bahnschrift, Aptos, sans-serif" font-size="34" font-weight="700">Scale</text>
  <text x="814" y="936" fill="#ABC0CB" font-family="Aptos, Segoe UI, sans-serif" font-size="24">systems and workflows</text>
  <text x="1266" y="892" fill="#EEF6F6" font-family="Bahnschrift, Aptos, sans-serif" font-size="34" font-weight="700">Explain</text>
  <text x="1266" y="936" fill="#ABC0CB" font-family="Aptos, Segoe UI, sans-serif" font-size="24">the work with clarity</text>
</svg>
