<svg width="1600" height="1200" viewBox="0 0 1600 1200" fill="none" xmlns="http://www.w3.org/2000/svg">
  <rect width="1600" height="1200" fill="#07131D"/>
  <rect x="92" y="92" width="1416" height="1016" rx="48" fill="#0B1B29" stroke="rgba(255,255,255,0.12)"/>
  <circle cx="1288" cy="236" r="156" fill="#63D6CB" fill-opacity="0.12"/>
  <circle cx="312" cy="964" r="188" fill="#FF9C52" fill-opacity="0.1"/>
  <rect x="236" y="220" width="612" height="760" rx="40" fill="rgba(255,255,255,0.05)" stroke="rgba(255,255,255,0.08)"/>
  <path d="M378 362H706" stroke="#EEF6F6" stroke-opacity="0.82" stroke-width="24" stroke-linecap="round"/>
  <path d="M378 438H706" stroke="#EEF6F6" stroke-opacity="0.18" stroke-width="20" stroke-linecap="round"/>
  <path d="M378 514H706" stroke="#EEF6F6" stroke-opacity="0.18" stroke-width="20" stroke-linecap="round"/>
  <path d="M378 590H628" stroke="#EEF6F6" stroke-opacity="0.18" stroke-width="20" stroke-linecap="round"/>
  <path d="M1098 430C1184 430 1254 500 1254 586V738C1254 824 1184 894 1098 894C1012 894 942 824 942 738V586C942 500 1012 430 1098 430Z" fill="rgba(99,214,203,0.16)" stroke="rgba(99,214,203,0.52)" stroke-width="18"/>
  <path d="M1004 554V506C1004 454 1046 412 1098 412C1150 412 1192 454 1192 506V554" stroke="#8FF2E0" stroke-width="22" stroke-linecap="round"/>
  <circle cx="1098" cy="650" r="28" fill="#EEF6F6"/>
  <path d="M1098 678V752" stroke="#EEF6F6" stroke-width="18" stroke-linecap="round"/>
  <text x="940" y="316" fill="#EEF6F6" font-family="Bahnschrift, Aptos, sans-serif" font-size="92" font-weight="700">Privacy</text>
  <text x="940" y="378" fill="#ABC0CB" font-family="Aptos, Segoe UI, sans-serif" font-size="30">Personal information and basic website usage</text>
</svg>
