<svg width="1200" height="1400" viewBox="0 0 1200 1400" fill="none" xmlns="http://www.w3.org/2000/svg">
  <rect width="1200" height="1400" fill="#07131D"/>
  <circle cx="940" cy="220" r="180" fill="#63D6CB" fill-opacity="0.14"/>
  <circle cx="240" cy="1180" r="220" fill="#FF9C52" fill-opacity="0.14"/>
  <rect x="90" y="90" width="1020" height="1220" rx="44" fill="rgba(255,255,255,0.04)" stroke="rgba(255,255,255,0.1)"/>
  <text x="150" y="170" fill="#8FF2E0" font-family="Aptos, Segoe UI, sans-serif" font-size="24" letter-spacing="4">PORTRAIT PLACEHOLDER</text>
  <circle cx="600" cy="520" r="188" fill="#112637" stroke="rgba(255,255,255,0.12)" stroke-width="8"/>
  <path d="M452 572C452 490 516 424 600 424C684 424 748 490 748 572V630C748 712 684 776 600 776C516 776 452 712 452 630V572Z" fill="#19354B"/>
  <path d="M356 1106C382 932 474 844 600 844C726 844 818 932 844 1106" stroke="#214761" stroke-width="170" stroke-linecap="round"/>
  <path d="M476 486C498 444 540 412 600 412C660 412 704 446 724 486" stroke="#8FF2E0" stroke-opacity="0.36" stroke-width="18" stroke-linecap="round"/>
  <circle cx="540" cy="582" r="18" fill="#8FF2E0"/>
  <circle cx="660" cy="582" r="18" fill="#8FF2E0"/>
  <path d="M540 676C572 700 628 700 660 676" stroke="#FF9C52" stroke-width="16" stroke-linecap="round"/>
  <rect x="174" y="1120" width="852" height="110" rx="30" fill="rgba(255,255,255,0.04)" stroke="rgba(255,255,255,0.08)"/>
  <text x="224" y="1184" fill="#EEF6F6" font-family="Bahnschrift, Aptos, sans-serif" font-size="46" font-weight="700">Replace with your headshot</text>
  <text x="224" y="1230" fill="#ABC0CB" font-family="Aptos, Segoe UI, sans-serif" font-size="26">Sized and styled to swap cleanly with a real profile image later</text>
</svg>
